<svg width="408" height="218" viewBox="0 0 408 218" fill="none" xmlns="http://www.w3.org/2000/svg">
<path d="M361 209.408H350.92C348.744 209.408 347.304 209.056 346.6 208.352C345.96 207.648 345.64 206.176 345.64 203.936V145.472C345.64 143.232 345.96 141.76 346.6 141.056C347.304 140.352 348.744 140 350.92 140H361V209.408ZM390.664 195.968V204.128C390.664 206.304 390.312 207.744 389.608 208.448C388.904 209.088 387.432 209.408 385.192 209.408H364.84V195.968H390.664ZM384.904 167.648V173.408C384.904 175.712 384.68 177.184 384.232 177.824C383.784 178.4 382.504 178.688 380.392 178.688H364.84V167.648H384.904ZM389.704 140V148.16C389.704 150.336 389.352 151.776 388.648 152.48C387.944 153.12 386.472 153.44 384.232 153.44H364.84V140H389.704Z" fill="#4CFE05"/>
<path d="M282.537 140H312.585C313.609 140 314.441 140.352 315.081 141.056C315.721 141.76 316.041 142.688 316.041 143.84V209.408H305.961C303.785 209.408 302.345 209.056 301.641 208.352C301.001 207.648 300.681 206.176 300.681 203.936V152H285.321C283.465 152 282.537 150.464 282.537 147.392V140ZM319.881 140H335.241C337.097 140 338.025 141.536 338.025 144.608V152H319.881V140Z" fill="#4CFE05"/>
<path d="M242.715 140V197.504C242.715 198.464 242.939 199.168 243.387 199.616C243.899 200.064 244.987 200.288 246.651 200.288H253.755V209.408H241.563C239.003 209.408 236.859 209.216 235.131 208.832C233.467 208.448 231.995 207.68 230.715 206.528C229.499 205.312 228.539 203.968 227.835 202.496C227.195 201.024 226.683 198.816 226.299 195.872C225.723 191.456 225.435 185.536 225.435 178.112C225.435 170.624 225.467 165.344 225.531 162.272C225.659 159.2 225.915 156.224 226.299 153.344C226.683 150.4 227.195 148.224 227.835 146.816C228.539 145.344 229.499 144.032 230.715 142.88C231.995 141.664 233.467 140.896 235.131 140.576C236.859 140.192 239.003 140 241.563 140H242.715ZM246.555 140.096H258.747C261.307 140.096 263.419 140.288 265.083 140.672C266.811 141.056 268.283 141.856 269.499 143.072C270.779 144.224 271.739 145.536 272.379 147.008C273.083 148.48 273.627 150.688 274.011 153.632C274.587 158.048 274.875 164 274.875 171.488C274.875 178.912 274.811 184.16 274.683 187.232C274.619 190.304 274.395 193.312 274.011 196.256C273.627 199.136 273.083 201.312 272.379 202.784C271.739 204.192 270.779 205.504 269.499 206.72C268.283 207.872 266.811 208.64 265.083 209.024C263.419 209.344 261.307 209.504 258.747 209.504H257.595V152C257.595 151.04 257.339 150.336 256.827 149.888C256.379 149.44 255.323 149.216 253.659 149.216H246.555V140.096Z" fill="#4CFE05"/>
<path d="M188.006 179.264H184.55C183.398 179.264 182.662 179.488 182.342 179.936C182.022 180.32 181.862 181.024 181.862 182.048V209.408H168.902C167.238 209.408 166.086 209.152 165.446 208.64C164.87 208.064 164.582 207.136 164.582 205.856V177.056C164.582 174.688 165.062 172.96 166.022 171.872C166.982 170.72 168.678 170.144 171.11 170.144H188.006V179.264ZM210.854 209.408H198.854C196.678 209.408 195.238 209.056 194.534 208.352C193.894 207.648 193.574 206.176 193.574 203.936V188.96C193.574 186.72 193.894 185.248 194.534 184.544C195.238 183.84 196.678 183.488 198.854 183.488H210.854V209.408ZM183.398 165.728H171.398C169.222 165.728 167.782 165.376 167.078 164.672C166.438 163.968 166.118 162.496 166.118 160.256V145.376C166.118 143.136 166.438 141.664 167.078 140.96C167.782 140.256 169.222 139.904 171.398 139.904H183.398V165.728ZM196.742 140H209.702C211.558 140 212.742 140.352 213.254 141.056C213.766 141.76 214.022 143.232 214.022 145.472V174.656C214.022 176.256 213.798 177.44 213.35 178.208C212.902 178.912 211.91 179.264 210.374 179.264H191.846V170.144H194.15C195.302 170.144 196.006 169.952 196.262 169.568C196.582 169.12 196.742 168.384 196.742 167.36V140Z" fill="#4CFE05"/>
<path d="M152.032 209.408H141.952C139.776 209.408 138.336 209.056 137.632 208.352C136.992 207.648 136.672 206.176 136.672 203.936V145.472C136.672 143.232 136.992 141.76 137.632 141.056C138.336 140.352 139.776 140 141.952 140H152.032V209.408Z" fill="#4CFE05"/>
<path d="M103.808 149.12H94.88C93.856 149.12 93.344 149.376 93.344 149.888V209.408H83.264C81.088 209.408 79.648 209.056 78.944 208.352C78.304 207.648 77.984 206.176 77.984 203.936V145.472C77.984 143.232 78.304 141.76 78.944 141.056C79.648 140.352 81.088 140 83.264 140H103.808V149.12ZM107.648 140H117.728C119.904 140 121.312 140.352 121.952 141.056C122.656 141.76 123.008 143.232 123.008 145.472V203.84C123.008 206.08 122.656 207.584 121.952 208.352C121.248 209.056 119.84 209.408 117.728 209.408H107.648V177.248H97.184V168.128H107.648V140Z" fill="#4CFE05"/>
<path d="M35.9959 209.408H34.8439C32.2839 209.408 30.1399 209.216 28.4119 208.832C26.7479 208.448 25.2759 207.68 23.9959 206.528C22.7799 205.312 21.8199 203.968 21.1159 202.496C20.4759 201.024 19.9639 198.816 19.5799 195.872C19.0039 191.456 18.7159 185.536 18.7159 178.112C18.7159 170.624 18.7479 165.344 18.8119 162.272C18.9399 159.2 19.1959 156.224 19.5799 153.344C19.9639 150.4 20.4759 148.224 21.1159 146.816C21.8199 145.344 22.7799 144.032 23.9959 142.88C25.2759 141.664 26.7479 140.896 28.4119 140.576C30.1399 140.192 32.2839 140 34.8439 140H35.9959V209.408ZM39.8359 140H52.0279C56.6999 140 60.2199 140.8 62.5879 142.4C65.0199 144 66.2359 146.784 66.2359 150.752V159.392C66.2359 160.736 65.7879 161.408 64.8919 161.408H52.7959C51.8999 161.408 51.3559 161.28 51.1639 161.024C50.9719 160.768 50.8759 160.224 50.8759 159.392V151.904C50.8759 150.88 50.7159 150.176 50.3959 149.792C50.1399 149.344 49.4359 149.12 48.2839 149.12H39.8359V140ZM52.7959 188H64.8919C65.7879 188 66.2359 188.672 66.2359 190.016V198.656C66.2359 202.624 65.0199 205.408 62.5879 207.008C60.2199 208.608 56.6999 209.408 52.0279 209.408H39.8359V200.288H48.2839C49.4359 200.288 50.1399 200.096 50.3959 199.712C50.7159 199.264 50.8759 198.528 50.8759 197.504V190.016C50.8759 189.184 50.9719 188.64 51.1639 188.384C51.3559 188.128 51.8999 188 52.7959 188Z" fill="#4CFE05"/>
<path d="M379.855 32.12H370.927C369.903 32.12 369.391 32.376 369.391 32.888V92.408H359.311C357.135 92.408 355.695 92.056 354.991 91.352C354.351 90.648 354.031 89.176 354.031 86.936V28.472C354.031 26.232 354.351 24.76 354.991 24.056C355.695 23.352 357.135 23 359.311 23H379.855V32.12ZM383.695 23H393.775C395.951 23 397.359 23.352 397.999 24.056C398.703 24.76 399.055 26.232 399.055 28.472V86.84C399.055 89.08 398.703 90.584 397.999 91.352C397.295 92.056 395.887 92.408 393.775 92.408H383.695V60.248H373.231V51.128H383.695V23Z" fill="#4CFE05"/>
<path d="M321.076 60.248H310.516V92.408H300.436C298.26 92.408 296.82 92.056 296.116 91.352C295.476 90.648 295.156 89.176 295.156 86.936V23H307.06C308.084 23 308.916 23.352 309.556 24.056C310.196 24.76 310.516 25.688 310.516 26.84V51.128H321.076V60.248ZM324.916 23H334.996C337.172 23 338.58 23.352 339.22 24.056C339.924 24.76 340.276 26.232 340.276 28.472V92.408H328.372C327.348 92.408 326.516 92.056 325.876 91.352C325.236 90.648 324.916 89.72 324.916 88.568V23Z" fill="#4CFE05"/>
<path d="M271.675 71.48H285.115C285.819 71.48 286.171 71.928 286.171 72.824V89.72C286.171 91.512 285.275 92.408 283.483 92.408H260.251V83.288H269.179C270.203 83.288 270.715 83.192 270.715 83C270.779 82.744 270.811 82.456 270.811 82.136V72.536C270.811 72.024 270.875 71.736 271.003 71.672C271.131 71.544 271.355 71.48 271.675 71.48ZM256.891 92.408H246.811C244.635 92.408 243.195 92.056 242.491 91.352C241.851 90.648 241.531 89.176 241.531 86.936V28.472C241.531 26.232 241.851 24.76 242.491 24.056C243.195 23.352 244.635 23 246.811 23H256.891V92.408Z" fill="#4CFE05"/>
<path d="M227.828 92.408H217.748C215.572 92.408 214.132 92.056 213.428 91.352C212.788 90.648 212.468 89.176 212.468 86.936V28.472C212.468 26.232 212.788 24.76 213.428 24.056C214.132 23.352 215.572 23 217.748 23H227.828V92.408Z" fill="#4CFE05"/>
<path d="M171.297 92.408H161.217C159.041 92.408 157.601 92.056 156.897 91.352C156.257 90.648 155.937 89.176 155.937 86.936V26.84C155.937 25.688 156.257 24.76 156.897 24.056C157.537 23.352 158.369 23 159.393 23H171.297V92.408ZM175.137 23H187.329C193.409 23 197.441 24.44 199.425 27.32C201.473 30.136 202.497 35.832 202.497 44.408C202.497 50.104 201.857 54.552 200.577 57.752C199.361 60.952 197.729 63.096 195.681 64.184C193.633 65.208 190.849 65.72 187.329 65.72H175.137V56.6H182.241C183.905 56.6 184.961 56.376 185.409 55.928C185.921 55.48 186.177 54.776 186.177 53.816V35C186.177 33.976 185.921 33.24 185.409 32.792C184.961 32.344 183.905 32.12 182.241 32.12H175.137V23Z" fill="#4CFE05"/>
<path d="M113.801 23H128.201C132.873 23 136.393 23.8 138.761 25.4C141.193 27 142.409 29.784 142.409 33.752V86.936C142.409 89.176 142.057 90.648 141.353 91.352C140.713 92.056 139.305 92.408 137.129 92.408H127.049V34.904C127.049 33.88 126.889 33.176 126.569 32.792C126.313 32.344 125.609 32.12 124.457 32.12H113.801V23ZM78.9534 92.408H68.8734C66.6974 92.408 65.2574 92.056 64.5534 91.352C63.9134 90.648 63.5934 89.176 63.5934 86.936V26.84C63.5934 25.688 63.9134 24.76 64.5534 24.056C65.1934 23.352 66.0254 23 67.0494 23H78.9534V92.408ZM82.8894 23H107.465C108.489 23 109.321 23.352 109.961 24.056C110.601 24.76 110.921 25.688 110.921 26.84V85.4H100.937C99.0174 85.4 97.6414 84.888 96.8094 83.864C95.9774 82.776 95.5614 81.048 95.5614 78.68V34.904C95.5614 33.88 95.4014 33.176 95.0814 32.792C94.8254 32.344 94.1214 32.12 92.9694 32.12H82.8894V23Z" fill="#4CFE05"/>
<path d="M23.3596 92.408H13.2796C11.1036 92.408 9.66363 92.056 8.95963 91.352C8.31963 90.648 7.99963 89.176 7.99963 86.936V28.472C7.99963 26.232 8.31963 24.76 8.95963 24.056C9.66363 23.352 11.1036 23 13.2796 23H23.3596V92.408ZM53.0236 78.968V87.128C53.0236 89.304 52.6716 90.744 51.9676 91.448C51.2636 92.088 49.7916 92.408 47.5516 92.408H27.1996V78.968H53.0236ZM47.2636 50.648V56.408C47.2636 58.712 47.0396 60.184 46.5916 60.824C46.1436 61.4 44.8636 61.688 42.7516 61.688H27.1996V50.648H47.2636ZM52.0636 23V31.16C52.0636 33.336 51.7116 34.776 51.0076 35.48C50.3036 36.12 48.8316 36.44 46.5916 36.44H27.1996V23H52.0636Z" fill="#4CFE05"/>
<path d="M364.84 195.968V209.408H385.192L385.604 209.404C387.479 209.369 388.767 209.089 389.467 208.564L389.608 208.448C390.312 207.744 390.664 206.304 390.664 204.128V195.968H364.84ZM364.84 167.648V178.688H380.393L381.146 178.675C382.693 178.616 383.69 178.368 384.139 177.929L384.232 177.824C384.68 177.184 384.904 175.712 384.904 173.408V167.648H364.84ZM364.84 140V153.44H384.232L384.644 153.437C386.519 153.402 387.807 153.121 388.507 152.597L388.648 152.48C389.352 151.776 389.704 150.336 389.704 148.16V140H364.84ZM397.704 148.16C397.704 149.62 397.592 151.214 397.211 152.771C396.846 154.265 396.08 156.362 394.305 158.137L394.171 158.271L394.029 158.399C393.476 158.902 392.898 159.312 392.323 159.648H392.904V173.408C392.904 174.77 392.841 176.156 392.646 177.443C392.487 178.486 392.102 180.532 390.786 182.412L390.671 182.577L390.547 182.735C388.578 185.267 385.857 186.015 384.692 186.277C383.236 186.605 381.728 186.688 380.393 186.688H369V187.968H398.664V204.128C398.664 205.587 398.553 207.183 398.172 208.74C397.807 210.234 397.04 212.331 395.265 214.105L395.131 214.239L394.989 214.368C393.16 216.031 391.059 216.685 389.676 216.985C388.183 217.31 386.636 217.408 385.192 217.408H350.92C349.46 217.408 347.866 217.296 346.309 216.915C344.815 216.55 342.718 215.784 340.943 214.009L340.809 213.874L340.681 213.733C339.018 211.904 338.363 209.803 338.062 208.42C337.738 206.927 337.641 205.38 337.641 203.937V152H338.024V144.608C338.024 143.774 337.953 143.053 337.816 142.445C337.878 141.958 337.958 141.47 338.062 140.988C338.363 139.605 339.018 137.504 340.681 135.675L340.809 135.534L340.943 135.399C342.718 133.624 344.815 132.858 346.309 132.493C347.866 132.112 349.46 132 350.92 132V140C348.744 140 347.305 140.353 346.601 141.057L346.484 141.197C345.922 141.947 345.641 143.373 345.641 145.473V203.937L345.644 204.348C345.681 206.357 346.001 207.693 346.601 208.353C347.305 209.056 348.744 209.408 350.92 209.408H361V140H350.92V132H397.704V148.16Z" fill="black"/>
<path d="M335.24 132V140H319.881V152H338.024V144.608C338.024 141.536 337.096 140 335.24 140V132C338.852 132 342.204 133.751 344.176 137.016C345.277 138.838 345.74 140.796 345.92 142.52C345.734 143.281 345.641 144.265 345.641 145.473V160H324.041V217.408H305.961C304.501 217.408 302.906 217.296 301.349 216.915C299.855 216.55 297.758 215.784 295.983 214.009L295.85 213.874L295.722 213.733C294.059 211.904 293.404 209.803 293.104 208.42C292.779 206.927 292.681 205.38 292.681 203.937V160H285.32C281.708 160 278.358 158.249 276.386 154.985C274.805 152.369 274.537 149.473 274.537 147.393V132H335.24ZM300.685 204.348C300.722 206.357 301.041 207.693 301.641 208.353C302.301 209.012 303.608 209.363 305.562 209.404L305.961 209.408H316.041V143.84C316.041 142.688 315.721 141.761 315.081 141.057C314.481 140.397 313.712 140.045 312.774 140.004L312.585 140H282.537V147.393C282.537 150.464 283.465 152 285.32 152H300.681V203.937L300.685 204.348Z" fill="black"/>
<path d="M250.715 132V132.097H258.747V140.097H246.555V149.216H253.659C255.323 149.216 256.379 149.441 256.827 149.889L256.92 149.976C257.37 150.426 257.595 151.1 257.595 152V209.504H258.747C261.307 209.504 263.419 209.344 265.083 209.024C266.703 208.664 268.098 207.967 269.268 206.932L269.499 206.72C270.779 205.504 271.739 204.192 272.379 202.784C272.995 201.496 273.488 199.669 273.859 197.303L274.011 196.256C274.395 193.312 274.619 190.304 274.683 187.232C274.779 184.928 274.838 181.4 274.862 176.648L274.875 171.488C274.875 164.468 274.621 158.798 274.115 154.479L274.011 153.632C273.627 150.688 273.083 148.48 272.379 147.008C271.779 145.628 270.898 144.389 269.735 143.29L269.499 143.072C268.283 141.856 266.811 141.056 265.083 140.672C263.627 140.336 261.828 140.147 259.686 140.105L258.747 140.097V132.097C261.619 132.097 264.366 132.304 266.817 132.862C266.839 132.867 266.861 132.872 266.882 132.877H266.881C269.939 133.568 272.693 135.028 274.968 137.234C276.947 139.043 278.551 141.197 279.657 143.69C280.87 146.286 281.531 149.438 281.943 152.598C282.584 157.509 282.875 163.853 282.875 171.488C282.875 178.912 282.811 184.31 282.676 187.565C282.601 190.86 282.359 194.103 281.943 197.291L281.942 197.302L281.94 197.313C281.525 200.426 280.861 203.522 279.66 206.094L279.662 206.095C278.541 208.562 276.93 210.696 275.009 212.521L275.001 212.527C272.673 214.732 269.876 216.154 266.818 216.834L266.706 216.858L266.594 216.88C264.249 217.331 261.585 217.504 258.747 217.504H249.595V217.408H241.562C238.653 217.408 235.884 217.195 233.396 216.642L233.363 216.635L233.332 216.627C230.335 215.935 227.643 214.526 225.363 212.475L225.207 212.334L225.058 212.185C223.235 210.362 221.733 208.282 220.617 205.948L220.556 205.818L220.498 205.686C219.406 203.173 218.78 200.078 218.366 196.907C217.726 191.998 217.435 185.687 217.435 178.112C217.435 170.625 217.466 165.27 217.532 162.105L217.534 162.022L217.538 161.939C217.676 158.639 217.951 155.421 218.369 152.287C218.78 149.147 219.409 146.019 220.552 143.506L220.584 143.435L220.617 143.364C221.684 141.134 223.113 139.144 224.859 137.415L225.213 137.072C227.497 134.905 230.261 133.413 233.396 132.767L233.865 132.667C236.23 132.188 238.835 132 241.562 132H250.715ZM225.448 180.826C225.511 186.993 225.795 192.008 226.299 195.872C226.683 198.816 227.195 201.024 227.835 202.496C228.539 203.968 229.499 205.312 230.715 206.528C231.995 207.68 233.467 208.448 235.131 208.832C236.859 209.216 239.003 209.408 241.562 209.408H253.755V200.288H246.65C244.987 200.288 243.899 200.064 243.387 199.616C242.995 199.224 242.775 198.636 242.726 197.853L242.715 197.504V140H241.562C239.003 140 236.859 140.192 235.131 140.576C233.467 140.896 231.995 141.664 230.715 142.88L230.271 143.319C229.262 144.362 228.451 145.528 227.835 146.816L227.716 147.089C227.131 148.499 226.659 150.584 226.299 153.344C225.915 156.224 225.658 159.2 225.53 162.272L225.488 164.99C225.452 168.122 225.435 172.496 225.435 178.112L225.448 180.826Z" fill="black"/>
<path d="M191.398 131.904V132H209.702V140H196.742V167.36L196.734 167.73C196.699 168.564 196.542 169.176 196.262 169.568L196.209 169.638C195.956 169.93 195.406 170.096 194.561 170.135L194.15 170.145H191.846V179.265H210.374C211.91 179.265 212.902 178.912 213.35 178.208C213.742 177.536 213.963 176.546 214.012 175.236L214.021 174.656V145.473C214.021 143.233 213.766 141.761 213.254 141.057C212.774 140.397 211.703 140.045 210.042 140.004L209.702 140V132C211.056 132 212.658 132.119 214.262 132.596C215.851 133.068 218.08 134.091 219.724 136.351C221.041 138.162 221.504 140.123 221.712 141.317C221.947 142.67 222.021 144.096 222.021 145.473V174.656C222.021 176.701 221.789 179.618 220.26 182.239L220.183 182.373L220.1 182.503C219.719 183.101 219.298 183.623 218.854 184.081V217.408H198.854C197.394 217.408 195.799 217.296 194.242 216.915C193.017 216.616 191.388 216.046 189.862 214.872V217.408H168.902C166.987 217.408 163.375 217.228 160.448 214.887L160.103 214.61L159.789 214.297C157.048 211.555 156.582 208.083 156.582 205.856V177.057C156.582 174.141 157.085 170.443 159.396 167.353C158.952 166.38 158.698 165.462 158.541 164.739C158.216 163.246 158.118 161.699 158.118 160.256V145.376C158.118 143.932 158.216 142.386 158.541 140.893C158.842 139.509 159.495 137.408 161.158 135.579L161.286 135.438L161.421 135.304C163.196 133.529 165.292 132.763 166.786 132.397C168.344 132.017 169.939 131.904 171.398 131.904V139.904L170.999 139.908C169.045 139.949 167.738 140.3 167.078 140.96L166.962 141.102C166.4 141.852 166.118 143.276 166.118 145.376V160.256L166.122 160.667C166.16 162.677 166.478 164.012 167.078 164.672C167.782 165.376 169.222 165.729 171.398 165.729H183.398V139.904H171.398V131.904H191.398ZM198.854 183.488C196.678 183.488 195.238 183.84 194.534 184.544C193.894 185.248 193.574 186.72 193.574 188.96V203.937L193.578 204.348C193.616 206.357 193.934 207.693 194.534 208.353C195.238 209.056 196.678 209.408 198.854 209.408H210.854V183.488H198.854ZM164.582 205.856C164.582 207.136 164.87 208.065 165.446 208.641C166.006 209.088 166.958 209.34 168.302 209.396L168.902 209.408H181.862V182.048C181.862 181.152 181.984 180.501 182.229 180.095L182.342 179.937C182.622 179.544 183.221 179.323 184.138 179.274L184.55 179.265H188.006V170.145H171.11C168.678 170.145 166.981 170.72 166.021 171.872C165.062 172.96 164.582 174.689 164.582 177.057V205.856Z" fill="black"/>
<path d="M152.031 140H141.951V132H160.031V217.408H141.951C140.492 217.408 138.897 217.296 137.34 216.915C135.846 216.55 133.75 215.784 131.975 214.009L131.84 213.874L131.712 213.733C130.049 211.904 129.394 209.803 129.094 208.42C128.769 206.927 128.672 205.38 128.672 203.937V145.473C128.672 144.029 128.769 142.482 129.094 140.988C129.394 139.605 130.049 137.504 131.712 135.675L131.84 135.534L131.975 135.399C133.75 133.624 135.846 132.858 137.34 132.493C138.897 132.112 140.492 132 141.951 132V140C139.775 140 138.336 140.353 137.632 141.057L137.516 141.197C136.953 141.947 136.672 143.373 136.672 145.473V203.937L136.675 204.348C136.712 206.357 137.032 207.693 137.632 208.353C138.336 209.056 139.776 209.408 141.951 209.408H152.031V140Z" fill="black"/>
<path d="M103.808 140H83.2637V132H117.728V140H107.648V168.128H97.1836V177.248H107.648V209.408H117.728C119.707 209.408 121.069 209.099 121.812 208.48L121.952 208.353C122.656 207.585 123.008 206.08 123.008 203.84V145.473C123.008 143.233 122.656 141.761 121.952 141.057C121.312 140.353 119.904 140 117.728 140V132C119.179 132 120.787 132.111 122.356 132.503C123.771 132.857 125.853 133.614 127.607 135.399H127.608C129.414 137.205 130.17 139.346 130.524 140.827C130.898 142.388 131.008 143.995 131.008 145.473V203.84C131.008 205.325 130.896 206.921 130.533 208.472C130.184 209.962 129.471 211.989 127.85 213.758L127.731 213.886L127.608 214.009C125.866 215.752 123.815 216.529 122.309 216.905C120.754 217.294 119.17 217.408 117.728 217.408H83.2637C81.8042 217.408 80.2097 217.296 78.6523 216.915C77.1585 216.55 75.0621 215.784 73.2871 214.009L73.1523 213.874L73.0244 213.733C71.3615 211.904 70.707 209.803 70.4062 208.42C70.0817 206.927 69.9844 205.38 69.9844 203.937V145.473C69.9844 144.029 70.0816 142.482 70.4062 140.988C70.707 139.605 71.3615 137.504 73.0244 135.675L73.1523 135.534L73.2871 135.399C75.0621 133.624 77.1585 132.858 78.6523 132.493C80.2097 132.112 81.8042 132 83.2637 132V140C81.0878 140 79.6483 140.353 78.9443 141.057L78.8281 141.197C78.2655 141.947 77.9844 143.373 77.9844 145.473V203.937L77.9873 204.348C78.0248 206.357 78.3444 207.693 78.9443 208.353C79.6484 209.056 81.0882 209.408 83.2637 209.408H93.3438V149.889C93.3438 149.377 93.8559 149.12 94.8799 149.12H103.808V140Z" fill="black"/>
<path d="M64.8916 180V188H52.7959V180H64.8916ZM34.8438 140C32.2839 140 30.14 140.192 28.4121 140.576C26.7482 140.896 25.276 141.664 23.9961 142.88L23.5518 143.319C22.5437 144.362 21.7322 145.528 21.1162 146.816L20.9971 147.089C20.4121 148.499 19.9401 150.584 19.5801 153.344C19.1961 156.224 18.9395 159.2 18.8115 162.272L18.7695 164.99C18.7335 168.122 18.7158 172.496 18.7158 178.112L18.7295 180.826C18.7925 186.993 19.0761 192.008 19.5801 195.872C19.9641 198.816 20.4762 201.024 21.1162 202.496C21.8202 203.968 22.7801 205.312 23.9961 206.528C25.2761 207.68 26.7482 208.448 28.4121 208.832C30.14 209.216 32.2839 209.408 34.8438 209.408H35.9961V140H34.8438ZM39.8359 149.12H48.2842C49.4358 149.12 50.1394 149.344 50.3955 149.792C50.7155 150.176 50.876 150.88 50.876 151.904V159.393L50.8809 159.69C50.9018 160.356 50.996 160.8 51.1641 161.024C51.3562 161.28 51.9002 161.408 52.7959 161.408H64.8916C65.7315 161.408 66.1779 160.818 66.2305 159.637L66.2363 159.393V150.752C66.2363 146.784 65.0198 144 62.5879 142.4C60.3679 140.9 57.1355 140.104 52.8906 140.01L52.0283 140V132C57.3433 132 62.7088 132.864 66.9844 135.718L66.9854 135.717C67.0028 135.728 67.0197 135.74 67.0371 135.752C67.0468 135.759 67.0567 135.765 67.0664 135.771H67.0654C72.4547 139.363 74.2363 145.197 74.2363 150.752V159.393C74.2363 160.701 74.0639 163.081 72.5566 165.342C70.6675 168.175 67.6701 169.408 64.8916 169.408H52.7959C52.0532 169.408 51.0047 169.363 49.8838 169.1C49.0172 168.896 46.5626 168.223 44.7637 165.824C44.4556 165.413 44.2036 164.999 43.9961 164.599V184.809C44.2035 184.408 44.4558 183.994 44.7637 183.584C46.5626 181.185 49.0172 180.513 49.8838 180.309C51.0047 180.045 52.0532 180 52.7959 180V188C51.9003 188 51.3563 188.128 51.1641 188.384C50.9721 188.64 50.876 189.185 50.876 190.017V197.504L50.8682 197.875C50.8331 198.708 50.6755 199.32 50.3955 199.712C50.1715 200.048 49.6051 200.237 48.6953 200.279L48.2842 200.288H39.8359V209.408H52.0283L52.8906 209.398C57.1355 209.305 60.3679 208.508 62.5879 207.008C64.8677 205.508 66.0791 202.968 66.2217 199.387L66.2363 198.656V190.017C66.2363 188.673 65.7876 188 64.8916 188V180C67.67 180 70.6675 181.233 72.5566 184.066C74.0641 186.328 74.2363 188.708 74.2363 190.017V198.656C74.2363 204.211 72.4543 210.044 67.0654 213.636L67.0664 213.637C67.0568 213.643 67.0467 213.649 67.0371 213.655C67.0196 213.667 67.0029 213.68 66.9854 213.691L66.9844 213.689C62.7087 216.544 57.3435 217.408 52.0283 217.408H31.8359V217.321C30.0237 217.214 28.2909 217 26.6768 216.642L26.6445 216.635L26.6133 216.627C23.6159 215.935 20.924 214.526 18.6445 212.475L18.4883 212.334L18.3389 212.185C16.5166 210.362 15.0144 208.282 13.8984 205.948L13.8369 205.818L13.7793 205.686C12.6871 203.173 12.061 200.078 11.6475 196.907C11.0071 191.998 10.7158 185.687 10.7158 178.112C10.7158 170.625 10.7476 165.27 10.8135 162.105L10.8154 162.022L10.8193 161.939C10.9568 158.639 11.2326 155.421 11.6504 152.287C12.0611 149.147 12.6905 146.019 13.833 143.506L13.8652 143.435L13.8984 143.364C14.9653 141.134 16.3942 139.144 18.1406 137.415L18.4941 137.072C20.7783 134.905 23.5421 133.413 26.6768 132.767L27.1465 132.667C28.6255 132.367 30.1982 132.183 31.8359 132.086V132H52.0283V140H39.8359V149.12Z" fill="black"/>
<path d="M379.854 23H359.311V15H393.774V23H383.695V51.1279H373.23V60.248H383.695V92.4082H393.774C395.754 92.4082 397.116 92.099 397.858 91.4805L397.999 91.3525C398.703 90.5845 399.055 89.0798 399.055 86.8398V28.4727C399.055 26.233 398.703 24.7608 397.999 24.0566C397.399 23.3966 396.124 23.0452 394.174 23.0039L393.774 23V15C395.226 15 396.834 15.1106 398.403 15.5029C399.818 15.8566 401.9 16.6151 403.654 18.4004L403.655 18.3994C405.461 20.2054 406.217 22.3461 406.571 23.8271C406.945 25.3879 407.055 26.9948 407.055 28.4727V86.8398C407.055 88.3249 406.943 89.9207 406.58 91.4717C406.231 92.9618 405.518 94.989 403.896 96.7578L403.778 96.8857L403.655 97.0088C401.912 98.7516 399.861 99.5287 398.355 99.9053C396.801 100.294 395.217 100.408 393.774 100.408H359.311C357.851 100.408 356.257 100.296 354.699 99.915C353.205 99.5499 351.109 98.7837 349.334 97.0088L349.199 96.874L349.071 96.7334C347.408 94.9042 346.754 92.8031 346.453 91.4199C346.129 89.9268 346.031 88.3801 346.031 86.9365V28.4727C346.031 27.029 346.129 25.4815 346.453 23.9883C346.754 22.605 347.408 20.504 349.071 18.6748L349.199 18.5342L349.334 18.3994C351.109 16.6244 353.205 15.8583 354.699 15.4932C356.257 15.1125 357.851 15 359.311 15V23L358.911 23.0039C356.958 23.0452 355.651 23.3967 354.991 24.0566L354.875 24.1973C354.312 24.9472 354.031 26.3725 354.031 28.4727V86.9365L354.034 87.3477C354.072 89.3574 354.391 90.6926 354.991 91.3525C355.695 92.0563 357.135 92.4082 359.311 92.4082H369.391V32.8887C369.391 32.3767 369.903 32.1201 370.927 32.1201H379.854V23Z" fill="black"/>
<path d="M334.996 15V23H324.916V88.5684L324.92 88.7812C324.957 89.8351 325.276 90.6925 325.876 91.3525C326.476 92.0123 327.244 92.363 328.182 92.4043L328.372 92.4082H340.275V28.4727C340.275 26.2328 339.924 24.7607 339.22 24.0566C338.62 23.3966 337.345 23.0451 335.395 23.0039L334.996 23V15C336.447 15 338.055 15.1107 339.624 15.5029C341.039 15.8567 343.122 16.6148 344.876 18.4004L344.877 18.3994C346.683 20.2053 347.438 22.3462 347.792 23.8271C348.165 25.3879 348.275 26.9948 348.275 28.4727V100.408H328.372C325.287 100.408 322.237 99.2429 319.956 96.7334C319.385 96.1056 318.91 95.4439 318.516 94.7627V100.408H300.436C298.976 100.408 297.382 100.296 295.824 99.915C294.33 99.5499 292.234 98.7837 290.459 97.0088L290.324 96.874L290.196 96.7334C288.533 94.9042 287.879 92.8031 287.578 91.4199C287.254 89.9268 287.156 88.3801 287.156 86.9365V15H307.06V23H295.156V86.9365L295.159 87.3477C295.197 89.3574 295.516 90.6926 296.116 91.3525C296.82 92.0563 298.26 92.4082 300.436 92.4082H310.516V60.248H321.076V51.1279H310.516V26.8398C310.516 25.6881 310.196 24.7605 309.556 24.0566C308.956 23.3967 308.187 23.0452 307.25 23.0039L307.06 23V15C310.048 15 313.003 16.0938 315.259 18.4434L315.476 18.6748L315.682 18.9082C316.162 19.4658 316.571 20.0481 316.916 20.6455V15H334.996Z" fill="black"/>
<path d="M285.115 63.4805V71.4805H271.675V63.4805H285.115ZM270.811 82.1357C270.811 82.4557 270.779 82.744 270.715 83C270.715 83.192 270.203 83.2881 269.179 83.2881H260.251V92.4082H283.482C285.162 92.4082 286.055 91.6208 286.16 90.0459L286.171 89.7197V72.8242C286.171 71.9844 285.862 71.538 285.243 71.4854L285.115 71.4805V63.4805C287.283 63.4806 290.15 64.2679 292.197 66.874C293.956 69.113 294.171 71.5464 294.171 72.8242V89.7197C294.171 91.8489 293.633 94.9151 291.155 97.3926C288.678 99.87 285.612 100.408 283.482 100.408H246.811C245.351 100.408 243.757 100.296 242.199 99.915C240.705 99.5499 238.609 98.7837 236.834 97.0088L236.699 96.874L236.571 96.7334C234.908 94.9042 234.254 92.8031 233.953 91.4199C233.629 89.9268 233.531 88.3801 233.531 86.9365V28.4727C233.531 27.029 233.629 25.4815 233.953 23.9883C234.254 22.605 234.908 20.504 236.571 18.6748L236.699 18.5342L236.834 18.3994C238.609 16.6244 240.705 15.8583 242.199 15.4932C243.757 15.1125 245.351 15 246.811 15V23L246.411 23.0039C244.458 23.0452 243.151 23.3967 242.491 24.0566L242.375 24.1973C241.812 24.9472 241.531 26.3725 241.531 28.4727V86.9365L241.534 87.3477C241.572 89.3574 241.891 90.6926 242.491 91.3525C243.195 92.0563 244.635 92.4082 246.811 92.4082H256.891V23H246.811V15H264.891V66.4932C265.189 66.1465 265.545 65.7925 265.966 65.4541C268.258 63.5683 270.812 63.4805 271.675 63.4805V71.4805L271.453 71.4922C271.249 71.5161 271.099 71.576 271.003 71.6719C270.875 71.7359 270.811 72.0242 270.811 72.5361V82.1357Z" fill="black"/>
<path d="M227.828 23H217.748V15H235.828V100.408H217.748C216.289 100.408 214.694 100.296 213.137 99.915C211.643 99.5499 209.546 98.7837 207.771 97.0088L207.637 96.874L207.509 96.7334C205.846 94.9042 205.191 92.8031 204.891 91.4199C204.566 89.9268 204.469 88.3801 204.469 86.9365V28.4727C204.469 27.029 204.566 25.4815 204.891 23.9883C205.191 22.605 205.846 20.504 207.509 18.6748L207.637 18.5342L207.771 18.3994C209.546 16.6244 211.643 15.8583 213.137 15.4932C214.694 15.1125 216.289 15 217.748 15V23L217.349 23.0039C215.395 23.0452 214.089 23.3967 213.429 24.0566L213.312 24.1973C212.75 24.9472 212.469 26.3725 212.469 28.4727V86.9365L212.472 87.3477C212.509 89.3574 212.829 90.6926 213.429 91.3525C214.133 92.0563 215.573 92.4082 217.748 92.4082H227.828V23Z" fill="black"/>
<path d="M186.165 54.1641C186.109 54.948 185.857 55.5357 185.409 55.9277L185.318 56.0098C184.893 56.3511 184.065 56.5443 182.837 56.5898L182.241 56.6006H175.137V65.7197H187.329L187.98 65.7139C190.98 65.6579 193.416 65.21 195.288 64.3701L195.681 64.1846C197.729 63.0966 199.361 60.952 200.577 57.752C201.857 54.552 202.497 50.1041 202.497 44.4082C202.497 35.8322 201.473 30.1363 199.425 27.3203C197.503 24.5304 193.659 23.0921 187.894 23.0049L187.329 23V15C194.124 15 201.705 16.5297 206.013 22.7822L206.011 22.7832C207.988 25.5796 209.013 29.0074 209.603 32.2891C210.228 35.7689 210.497 39.8491 210.497 44.4082C210.497 50.5446 209.83 56.16 208.005 60.7236L208.004 60.7227C206.414 64.8493 203.805 68.927 199.435 71.249L199.347 71.2959L199.259 71.3398C195.662 73.138 191.486 73.7197 187.329 73.7197H179.297V100.408H161.217C159.757 100.408 158.163 100.296 156.605 99.915C155.112 99.5499 153.015 98.7837 151.24 97.0088L151.105 96.874L150.978 96.7334C149.315 94.9042 148.66 92.8031 148.359 91.4199C148.035 89.9268 147.938 88.3801 147.938 86.9365V26.8398C147.938 24.1392 148.729 21.1482 150.978 18.6748L151.193 18.4434C153.449 16.0935 156.405 15 159.394 15V23L159.203 23.0039C158.266 23.0452 157.497 23.3967 156.897 24.0566C156.258 24.7606 155.938 25.688 155.938 26.8398V86.9365L155.94 87.3477C155.978 89.3574 156.298 90.6926 156.897 91.3525C157.602 92.0563 159.041 92.4082 161.217 92.4082H171.297V23H159.394V15H187.329V23H175.137V32.1201H182.241C183.905 32.1201 184.961 32.344 185.409 32.792L185.502 32.8799C185.952 33.3336 186.177 34.0402 186.177 35V53.8164L186.165 54.1641Z" fill="black"/>
<path d="M142.409 86.9365V33.752C142.409 29.7843 141.193 27.0004 138.762 25.4004C136.542 23.9003 133.309 23.1035 129.063 23.0098L128.201 23V15C133.516 15 138.882 15.8639 143.157 18.7178L143.158 18.7168C143.169 18.7238 143.179 18.7322 143.189 18.7393C143.206 18.7504 143.224 18.7603 143.24 18.7715L143.239 18.7734C148.628 22.3653 150.409 28.1971 150.409 33.752V86.9365C150.409 88.4143 150.299 90.0204 149.926 91.5811C149.572 93.0621 148.816 95.2027 147.01 97.0088L147.009 97.0078C145.255 98.7931 143.173 99.5515 141.758 99.9053C140.188 100.298 138.58 100.408 137.129 100.408H119.05V40.1201H118.921V93.4004H100.938C97.7431 93.4004 93.546 92.5341 90.6006 88.9092L90.5264 88.8174L90.4541 88.7236C88.0215 85.5423 87.5616 81.6557 87.5615 78.6807V40.1201H86.9531V100.408H68.873C67.4136 100.408 65.8191 100.296 64.2617 99.915C62.7679 99.5499 60.6714 98.7837 58.8965 97.0088L58.7617 96.874L58.6338 96.7334C56.9709 94.9042 56.3163 92.8031 56.0156 91.4199C55.691 89.9268 55.5938 88.3801 55.5938 86.9365V26.8398C55.5938 24.1392 56.3853 21.1482 58.6338 18.6748L58.8496 18.4434C61.1055 16.0935 64.0612 15 67.0498 15V23L66.8594 23.0039C65.922 23.0452 65.1537 23.3967 64.5537 24.0566C63.9138 24.7606 63.5938 25.688 63.5938 26.8398V86.9365L63.5967 87.3477C63.6342 89.3574 63.9538 90.6926 64.5537 91.3525C65.2578 92.0563 66.6976 92.4082 68.873 92.4082H78.9531V23H67.0498V15H128.201V23H113.802V32.1201H124.457C125.609 32.1201 126.313 32.3441 126.569 32.792C126.889 33.176 127.05 33.8803 127.05 34.9043V92.4082H137.129C139.305 92.4082 140.713 92.0565 141.354 91.3525C142.013 90.6926 142.364 89.3574 142.405 87.3477L142.409 86.9365ZM82.8896 32.1201H92.9697C94.1213 32.1202 94.8249 32.3442 95.0811 32.792C95.4011 33.176 95.5615 33.8803 95.5615 34.9043V78.6807L95.5664 79.1172C95.6152 81.2619 96.0296 82.8443 96.8096 83.8643C97.5896 84.8242 98.8477 85.3346 100.584 85.3945L100.938 85.4004H110.921V26.8398C110.921 25.688 110.601 24.7606 109.961 24.0566C109.361 23.3967 108.593 23.0452 107.655 23.0039L107.466 23H82.8896V32.1201Z" fill="black"/>
<path d="M27.1992 78.9678V92.4082H47.5518L47.9629 92.4043C49.8385 92.3693 51.1261 92.0893 51.8262 91.5645L51.9678 91.4482C52.6717 90.7442 53.0234 89.3039 53.0234 87.1279V78.9678H27.1992ZM27.1992 50.6484V61.6885H42.752L43.5049 61.6748C45.0519 61.6163 46.0497 61.3675 46.498 60.9287L46.5918 60.8242C47.0398 60.1842 47.2637 58.7121 47.2637 56.4082V50.6484H27.1992ZM27.1992 23V36.4404H46.5918L47.0029 36.4365C48.8784 36.4015 50.1662 36.1215 50.8662 35.5967L51.0078 35.4805C51.7118 34.7765 52.0635 33.3362 52.0635 31.1602V23H27.1992ZM60.0635 31.1602C60.0635 32.6196 59.951 34.2141 59.5703 35.7715C59.2052 37.2653 58.4391 39.3617 56.6641 41.1367L56.5303 41.2715L56.3887 41.3994C55.8358 41.902 55.2579 42.312 54.6826 42.6484H55.2637V56.4082C55.2637 57.7704 55.2008 59.1557 55.0049 60.4434C54.8462 61.4861 54.4615 63.5321 53.1455 65.4121L53.0303 65.5771L52.9062 65.7354C50.937 68.2673 48.2164 69.0153 47.0518 69.2773C45.5955 69.605 44.0876 69.6885 42.752 69.6885H31.3594V70.9678H61.0234V87.1279C61.0234 88.5875 60.912 90.1828 60.5312 91.7402C60.1661 93.234 59.3989 95.3306 57.624 97.1055L57.4902 97.2393L57.3486 97.3682C55.5195 99.0309 53.4183 99.6847 52.0352 99.9854C50.542 100.31 48.9953 100.408 47.5518 100.408H13.2793C11.8198 100.408 10.2253 100.296 8.66797 99.915C7.17416 99.5499 5.07769 98.7837 3.30273 97.0088L3.16797 96.874L3.04004 96.7334C1.37716 94.9042 0.722594 92.8031 0.421875 91.4199C0.0972786 89.9268 1.45076e-05 88.3801 0 86.9365V28.4727C0 27.029 0.0972545 25.4815 0.421875 23.9883C0.722618 22.605 1.37716 20.504 3.04004 18.6748L3.16797 18.5342L3.30273 18.3994C5.07771 16.6244 7.17415 15.8583 8.66797 15.4932C10.2253 15.1125 11.8198 15 13.2793 15V23L12.8799 23.0039C10.9263 23.0452 9.61992 23.3967 8.95996 24.0566L8.84375 24.1973C8.28117 24.9472 8 26.3725 8 28.4727V86.9365L8.00293 87.3477C8.04047 89.3574 8.36001 90.6926 8.95996 91.3525C9.66406 92.0563 11.1038 92.4082 13.2793 92.4082H23.3594V23H13.2793V15H60.0635V31.1602Z" fill="black"/>
<path d="M361 194.408H350.92C348.744 194.408 347.304 194.056 346.6 193.352C345.96 192.648 345.64 191.176 345.64 188.936V130.472C345.64 128.232 345.96 126.76 346.6 126.056C347.304 125.352 348.744 125 350.92 125H361V194.408ZM390.664 180.968V189.128C390.664 191.304 390.312 192.744 389.608 193.448C388.904 194.088 387.432 194.408 385.192 194.408H364.84V180.968H390.664ZM384.904 152.648V158.408C384.904 160.712 384.68 162.184 384.232 162.824C383.784 163.4 382.504 163.688 380.392 163.688H364.84V152.648H384.904ZM389.704 125V133.16C389.704 135.336 389.352 136.776 388.648 137.48C387.944 138.12 386.472 138.44 384.232 138.44H364.84V125H389.704Z" fill="#FEFA05"/>
<path d="M282.537 125H312.585C313.609 125 314.441 125.352 315.081 126.056C315.721 126.76 316.041 127.688 316.041 128.84V194.408H305.961C303.785 194.408 302.345 194.056 301.641 193.352C301.001 192.648 300.681 191.176 300.681 188.936V137H285.321C283.465 137 282.537 135.464 282.537 132.392V125ZM319.881 125H335.241C337.097 125 338.025 126.536 338.025 129.608V137H319.881V125Z" fill="#FEFA05"/>
<path d="M242.715 125V182.504C242.715 183.464 242.939 184.168 243.387 184.616C243.899 185.064 244.987 185.288 246.651 185.288H253.755V194.408H241.563C239.003 194.408 236.859 194.216 235.131 193.832C233.467 193.448 231.995 192.68 230.715 191.528C229.499 190.312 228.539 188.968 227.835 187.496C227.195 186.024 226.683 183.816 226.299 180.872C225.723 176.456 225.435 170.536 225.435 163.112C225.435 155.624 225.467 150.344 225.531 147.272C225.659 144.2 225.915 141.224 226.299 138.344C226.683 135.4 227.195 133.224 227.835 131.816C228.539 130.344 229.499 129.032 230.715 127.88C231.995 126.664 233.467 125.896 235.131 125.576C236.859 125.192 239.003 125 241.563 125H242.715ZM246.555 125.096H258.747C261.307 125.096 263.419 125.288 265.083 125.672C266.811 126.056 268.283 126.856 269.499 128.072C270.779 129.224 271.739 130.536 272.379 132.008C273.083 133.48 273.627 135.688 274.011 138.632C274.587 143.048 274.875 149 274.875 156.488C274.875 163.912 274.811 169.16 274.683 172.232C274.619 175.304 274.395 178.312 274.011 181.256C273.627 184.136 273.083 186.312 272.379 187.784C271.739 189.192 270.779 190.504 269.499 191.72C268.283 192.872 266.811 193.64 265.083 194.024C263.419 194.344 261.307 194.504 258.747 194.504H257.595V137C257.595 136.04 257.339 135.336 256.827 134.888C256.379 134.44 255.323 134.216 253.659 134.216H246.555V125.096Z" fill="#FEFA05"/>
<path d="M188.006 164.264H184.55C183.398 164.264 182.662 164.488 182.342 164.936C182.022 165.32 181.862 166.024 181.862 167.048V194.408H168.902C167.238 194.408 166.086 194.152 165.446 193.64C164.87 193.064 164.582 192.136 164.582 190.856V162.056C164.582 159.688 165.062 157.96 166.022 156.872C166.982 155.72 168.678 155.144 171.11 155.144H188.006V164.264ZM210.854 194.408H198.854C196.678 194.408 195.238 194.056 194.534 193.352C193.894 192.648 193.574 191.176 193.574 188.936V173.96C193.574 171.72 193.894 170.248 194.534 169.544C195.238 168.84 196.678 168.488 198.854 168.488H210.854V194.408ZM183.398 150.728H171.398C169.222 150.728 167.782 150.376 167.078 149.672C166.438 148.968 166.118 147.496 166.118 145.256V130.376C166.118 128.136 166.438 126.664 167.078 125.96C167.782 125.256 169.222 124.904 171.398 124.904H183.398V150.728ZM196.742 125H209.702C211.558 125 212.742 125.352 213.254 126.056C213.766 126.76 214.022 128.232 214.022 130.472V159.656C214.022 161.256 213.798 162.44 213.35 163.208C212.902 163.912 211.91 164.264 210.374 164.264H191.846V155.144H194.15C195.302 155.144 196.006 154.952 196.262 154.568C196.582 154.12 196.742 153.384 196.742 152.36V125Z" fill="#FEFA05"/>
<path d="M152.032 194.408H141.952C139.776 194.408 138.336 194.056 137.632 193.352C136.992 192.648 136.672 191.176 136.672 188.936V130.472C136.672 128.232 136.992 126.76 137.632 126.056C138.336 125.352 139.776 125 141.952 125H152.032V194.408Z" fill="#FEFA05"/>
<path d="M103.808 134.12H94.88C93.856 134.12 93.344 134.376 93.344 134.888V194.408H83.264C81.088 194.408 79.648 194.056 78.944 193.352C78.304 192.648 77.984 191.176 77.984 188.936V130.472C77.984 128.232 78.304 126.76 78.944 126.056C79.648 125.352 81.088 125 83.264 125H103.808V134.12ZM107.648 125H117.728C119.904 125 121.312 125.352 121.952 126.056C122.656 126.76 123.008 128.232 123.008 130.472V188.84C123.008 191.08 122.656 192.584 121.952 193.352C121.248 194.056 119.84 194.408 117.728 194.408H107.648V162.248H97.184V153.128H107.648V125Z" fill="#FEFA05"/>
<path d="M35.9959 194.408H34.8439C32.2839 194.408 30.1399 194.216 28.4119 193.832C26.7479 193.448 25.2759 192.68 23.9959 191.528C22.7799 190.312 21.8199 188.968 21.1159 187.496C20.4759 186.024 19.9639 183.816 19.5799 180.872C19.0039 176.456 18.7159 170.536 18.7159 163.112C18.7159 155.624 18.7479 150.344 18.8119 147.272C18.9399 144.2 19.1959 141.224 19.5799 138.344C19.9639 135.4 20.4759 133.224 21.1159 131.816C21.8199 130.344 22.7799 129.032 23.9959 127.88C25.2759 126.664 26.7479 125.896 28.4119 125.576C30.1399 125.192 32.2839 125 34.8439 125H35.9959V194.408ZM39.8359 125H52.0279C56.6999 125 60.2199 125.8 62.5879 127.4C65.0199 129 66.2359 131.784 66.2359 135.752V144.392C66.2359 145.736 65.7879 146.408 64.8919 146.408H52.7959C51.8999 146.408 51.3559 146.28 51.1639 146.024C50.9719 145.768 50.8759 145.224 50.8759 144.392V136.904C50.8759 135.88 50.7159 135.176 50.3959 134.792C50.1399 134.344 49.4359 134.12 48.2839 134.12H39.8359V125ZM52.7959 173H64.8919C65.7879 173 66.2359 173.672 66.2359 175.016V183.656C66.2359 187.624 65.0199 190.408 62.5879 192.008C60.2199 193.608 56.6999 194.408 52.0279 194.408H39.8359V185.288H48.2839C49.4359 185.288 50.1399 185.096 50.3959 184.712C50.7159 184.264 50.8759 183.528 50.8759 182.504V175.016C50.8759 174.184 50.9719 173.64 51.1639 173.384C51.3559 173.128 51.8999 173 52.7959 173Z" fill="#FEFA05"/>
<path d="M379.855 17.12H370.927C369.903 17.12 369.391 17.376 369.391 17.888V77.408H359.311C357.135 77.408 355.695 77.056 354.991 76.352C354.351 75.648 354.031 74.176 354.031 71.936V13.472C354.031 11.232 354.351 9.76 354.991 9.056C355.695 8.352 357.135 8 359.311 8H379.855V17.12ZM383.695 8H393.775C395.951 8 397.359 8.352 397.999 9.056C398.703 9.76 399.055 11.232 399.055 13.472V71.84C399.055 74.08 398.703 75.584 397.999 76.352C397.295 77.056 395.887 77.408 393.775 77.408H383.695V45.248H373.231V36.128H383.695V8Z" fill="#FEFA05"/>
<path d="M321.076 45.248H310.516V77.408H300.436C298.26 77.408 296.82 77.056 296.116 76.352C295.476 75.648 295.156 74.176 295.156 71.936V8H307.06C308.084 8 308.916 8.352 309.556 9.056C310.196 9.76 310.516 10.688 310.516 11.84V36.128H321.076V45.248ZM324.916 8H334.996C337.172 8 338.58 8.352 339.22 9.056C339.924 9.76 340.276 11.232 340.276 13.472V77.408H328.372C327.348 77.408 326.516 77.056 325.876 76.352C325.236 75.648 324.916 74.72 324.916 73.568V8Z" fill="#FEFA05"/>
<path d="M271.675 56.48H285.115C285.819 56.48 286.171 56.928 286.171 57.824V74.72C286.171 76.512 285.275 77.408 283.483 77.408H260.251V68.288H269.179C270.203 68.288 270.715 68.192 270.715 68C270.779 67.744 270.811 67.456 270.811 67.136V57.536C270.811 57.024 270.875 56.736 271.003 56.672C271.131 56.544 271.355 56.48 271.675 56.48ZM256.891 77.408H246.811C244.635 77.408 243.195 77.056 242.491 76.352C241.851 75.648 241.531 74.176 241.531 71.936V13.472C241.531 11.232 241.851 9.76 242.491 9.056C243.195 8.352 244.635 8 246.811 8H256.891V77.408Z" fill="#FEFA05"/>
<path d="M227.828 77.408H217.748C215.572 77.408 214.132 77.056 213.428 76.352C212.788 75.648 212.468 74.176 212.468 71.936V13.472C212.468 11.232 212.788 9.76 213.428 9.056C214.132 8.352 215.572 8 217.748 8H227.828V77.408Z" fill="#FEFA05"/>
<path d="M171.297 77.408H161.217C159.041 77.408 157.601 77.056 156.897 76.352C156.257 75.648 155.937 74.176 155.937 71.936V11.84C155.937 10.688 156.257 9.76 156.897 9.056C157.537 8.352 158.369 8 159.393 8H171.297V77.408ZM175.137 8H187.329C193.409 8 197.441 9.44 199.425 12.32C201.473 15.136 202.497 20.832 202.497 29.408C202.497 35.104 201.857 39.552 200.577 42.752C199.361 45.952 197.729 48.096 195.681 49.184C193.633 50.208 190.849 50.72 187.329 50.72H175.137V41.6H182.241C183.905 41.6 184.961 41.376 185.409 40.928C185.921 40.48 186.177 39.776 186.177 38.816V20C186.177 18.976 185.921 18.24 185.409 17.792C184.961 17.344 183.905 17.12 182.241 17.12H175.137V8Z" fill="#FEFA05"/>
<path d="M113.801 8H128.201C132.873 8 136.393 8.8 138.761 10.4C141.193 12 142.409 14.784 142.409 18.752V71.936C142.409 74.176 142.057 75.648 141.353 76.352C140.713 77.056 139.305 77.408 137.129 77.408H127.049V19.904C127.049 18.88 126.889 18.176 126.569 17.792C126.313 17.344 125.609 17.12 124.457 17.12H113.801V8ZM78.9534 77.408H68.8734C66.6974 77.408 65.2574 77.056 64.5534 76.352C63.9134 75.648 63.5934 74.176 63.5934 71.936V11.84C63.5934 10.688 63.9134 9.76 64.5534 9.056C65.1934 8.352 66.0254 8 67.0494 8H78.9534V77.408ZM82.8894 8H107.465C108.489 8 109.321 8.352 109.961 9.056C110.601 9.76 110.921 10.688 110.921 11.84V70.4H100.937C99.0174 70.4 97.6414 69.888 96.8094 68.864C95.9774 67.776 95.5614 66.048 95.5614 63.68V19.904C95.5614 18.88 95.4014 18.176 95.0814 17.792C94.8254 17.344 94.1214 17.12 92.9694 17.12H82.8894V8Z" fill="#FEFA05"/>
<path d="M23.3596 77.408H13.2796C11.1036 77.408 9.66363 77.056 8.95963 76.352C8.31963 75.648 7.99963 74.176 7.99963 71.936V13.472C7.99963 11.232 8.31963 9.76 8.95963 9.056C9.66363 8.352 11.1036 8 13.2796 8H23.3596V77.408ZM53.0236 63.968V72.128C53.0236 74.304 52.6716 75.744 51.9676 76.448C51.2636 77.088 49.7916 77.408 47.5516 77.408H27.1996V63.968H53.0236ZM47.2636 35.648V41.408C47.2636 43.712 47.0396 45.184 46.5916 45.824C46.1436 46.4 44.8636 46.688 42.7516 46.688H27.1996V35.648H47.2636ZM52.0636 8V16.16C52.0636 18.336 51.7116 19.776 51.0076 20.48C50.3036 21.12 48.8316 21.44 46.5916 21.44H27.1996V8H52.0636Z" fill="#FEFA05"/>
<path d="M364.84 180.968V194.408H385.192L385.604 194.404C387.479 194.369 388.767 194.089 389.467 193.564L389.608 193.448C390.312 192.744 390.664 191.304 390.664 189.128V180.968H364.84ZM364.84 152.648V163.688H380.393L381.146 163.675C382.693 163.616 383.69 163.368 384.139 162.929L384.232 162.824C384.68 162.184 384.904 160.712 384.904 158.408V152.648H364.84ZM364.84 125V138.44H384.232L384.644 138.437C386.519 138.402 387.807 138.121 388.507 137.597L388.648 137.48C389.352 136.776 389.704 135.336 389.704 133.16V125H364.84ZM397.704 133.16C397.704 134.62 397.592 136.214 397.211 137.771C396.846 139.265 396.08 141.362 394.305 143.137L394.171 143.271L394.029 143.399C393.476 143.902 392.898 144.312 392.323 144.648H392.904V158.408C392.904 159.77 392.841 161.156 392.646 162.443C392.487 163.486 392.102 165.532 390.786 167.412L390.671 167.577L390.547 167.735C388.578 170.267 385.857 171.015 384.692 171.277C383.236 171.605 381.728 171.688 380.393 171.688H369V172.968H398.664V189.128C398.664 190.587 398.553 192.183 398.172 193.74C397.807 195.234 397.04 197.331 395.265 199.105L395.131 199.239L394.989 199.368C393.16 201.031 391.059 201.685 389.676 201.985C388.183 202.31 386.636 202.408 385.192 202.408H350.92C349.46 202.408 347.866 202.296 346.309 201.915C344.815 201.55 342.718 200.784 340.943 199.009L340.809 198.874L340.681 198.733C339.018 196.904 338.363 194.803 338.062 193.42C337.738 191.927 337.641 190.38 337.641 188.937V137H338.024V129.608C338.024 128.774 337.953 128.053 337.816 127.445C337.878 126.958 337.958 126.47 338.062 125.988C338.363 124.605 339.018 122.504 340.681 120.675L340.809 120.534L340.943 120.399C342.718 118.624 344.815 117.858 346.309 117.493C347.866 117.112 349.46 117 350.92 117V125C348.744 125 347.305 125.353 346.601 126.057L346.484 126.197C345.922 126.947 345.641 128.373 345.641 130.473V188.937L345.644 189.348C345.681 191.357 346.001 192.693 346.601 193.353C347.305 194.056 348.744 194.408 350.92 194.408H361V125H350.92V117H397.704V133.16Z" fill="black"/>
<path d="M335.24 117V125H319.881V137H338.024V129.608C338.024 126.536 337.096 125 335.24 125V117C338.852 117 342.204 118.751 344.176 122.016C345.277 123.838 345.74 125.796 345.92 127.52C345.734 128.281 345.641 129.265 345.641 130.473V145H324.041V202.408H305.961C304.501 202.408 302.906 202.296 301.349 201.915C299.855 201.55 297.758 200.784 295.983 199.009L295.85 198.874L295.722 198.733C294.059 196.904 293.404 194.803 293.104 193.42C292.779 191.927 292.681 190.38 292.681 188.937V145H285.32C281.708 145 278.358 143.249 276.386 139.985C274.805 137.369 274.537 134.473 274.537 132.393V117H335.24ZM300.685 189.348C300.722 191.357 301.041 192.693 301.641 193.353C302.301 194.012 303.608 194.363 305.562 194.404L305.961 194.408H316.041V128.84C316.041 127.688 315.721 126.761 315.081 126.057C314.481 125.397 313.712 125.045 312.774 125.004L312.585 125H282.537V132.393C282.537 135.464 283.465 137 285.32 137H300.681V188.937L300.685 189.348Z" fill="black"/>
<path d="M250.715 117V117.097H258.747V125.097H246.555V134.216H253.659C255.323 134.216 256.379 134.441 256.827 134.889L256.92 134.976C257.37 135.426 257.595 136.1 257.595 137V194.504H258.747C261.307 194.504 263.419 194.344 265.083 194.024C266.703 193.664 268.098 192.967 269.268 191.932L269.499 191.72C270.779 190.504 271.739 189.192 272.379 187.784C272.995 186.496 273.488 184.669 273.859 182.303L274.011 181.256C274.395 178.312 274.619 175.304 274.683 172.232C274.779 169.928 274.838 166.4 274.862 161.648L274.875 156.488C274.875 149.468 274.621 143.798 274.115 139.479L274.011 138.632C273.627 135.688 273.083 133.48 272.379 132.008C271.779 130.628 270.898 129.389 269.735 128.29L269.499 128.072C268.283 126.856 266.811 126.056 265.083 125.672C263.627 125.336 261.828 125.147 259.686 125.105L258.747 125.097V117.097C261.619 117.097 264.366 117.304 266.817 117.862C266.839 117.867 266.861 117.872 266.882 117.877H266.881C269.939 118.568 272.693 120.028 274.968 122.234C276.947 124.043 278.551 126.197 279.657 128.69C280.87 131.286 281.531 134.438 281.943 137.598C282.584 142.509 282.875 148.853 282.875 156.488C282.875 163.912 282.811 169.31 282.676 172.565C282.601 175.86 282.359 179.103 281.943 182.291L281.942 182.302L281.94 182.313C281.525 185.426 280.861 188.522 279.66 191.094L279.662 191.095C278.541 193.562 276.93 195.696 275.009 197.521L275.001 197.527C272.673 199.732 269.876 201.154 266.818 201.834L266.706 201.858L266.594 201.88C264.249 202.331 261.585 202.504 258.747 202.504H249.595V202.408H241.562C238.653 202.408 235.884 202.195 233.396 201.642L233.363 201.635L233.332 201.627C230.335 200.935 227.643 199.526 225.363 197.475L225.207 197.334L225.058 197.185C223.235 195.362 221.733 193.282 220.617 190.948L220.556 190.818L220.498 190.686C219.406 188.173 218.78 185.078 218.366 181.907C217.726 176.998 217.435 170.687 217.435 163.112C217.435 155.625 217.466 150.27 217.532 147.105L217.534 147.022L217.538 146.939C217.676 143.639 217.951 140.421 218.369 137.287C218.78 134.147 219.409 131.019 220.552 128.506L220.584 128.435L220.617 128.364C221.684 126.134 223.113 124.144 224.859 122.415L225.213 122.072C227.497 119.905 230.261 118.413 233.396 117.767L233.865 117.667C236.23 117.188 238.835 117 241.562 117H250.715ZM225.448 165.826C225.511 171.993 225.795 177.008 226.299 180.872C226.683 183.816 227.195 186.024 227.835 187.496C228.539 188.968 229.499 190.312 230.715 191.528C231.995 192.68 233.467 193.448 235.131 193.832C236.859 194.216 239.003 194.408 241.562 194.408H253.755V185.288H246.65C244.987 185.288 243.899 185.064 243.387 184.616C242.995 184.224 242.775 183.636 242.726 182.853L242.715 182.504V125H241.562C239.003 125 236.859 125.192 235.131 125.576C233.467 125.896 231.995 126.664 230.715 127.88L230.271 128.319C229.262 129.362 228.451 130.528 227.835 131.816L227.716 132.089C227.131 133.499 226.659 135.584 226.299 138.344C225.915 141.224 225.658 144.2 225.53 147.272L225.488 149.99C225.452 153.122 225.435 157.496 225.435 163.112L225.448 165.826Z" fill="black"/>
<path d="M191.398 116.904V117H209.702V125H196.742V152.36L196.734 152.73C196.699 153.564 196.542 154.176 196.262 154.568L196.209 154.638C195.956 154.93 195.406 155.096 194.561 155.135L194.15 155.145H191.846V164.265H210.374C211.91 164.265 212.902 163.912 213.35 163.208C213.742 162.536 213.963 161.546 214.012 160.236L214.021 159.656V130.473C214.021 128.233 213.766 126.761 213.254 126.057C212.774 125.397 211.703 125.045 210.042 125.004L209.702 125V117C211.056 117 212.658 117.119 214.262 117.596C215.851 118.068 218.08 119.091 219.724 121.351C221.041 123.162 221.504 125.123 221.712 126.317C221.947 127.67 222.021 129.096 222.021 130.473V159.656C222.021 161.701 221.789 164.618 220.26 167.239L220.183 167.373L220.1 167.503C219.719 168.101 219.298 168.623 218.854 169.081V202.408H198.854C197.394 202.408 195.799 202.296 194.242 201.915C193.017 201.616 191.388 201.046 189.862 199.872V202.408H168.902C166.987 202.408 163.375 202.228 160.448 199.887L160.103 199.61L159.789 199.297C157.048 196.555 156.582 193.083 156.582 190.856V162.057C156.582 159.141 157.085 155.443 159.396 152.353C158.952 151.38 158.698 150.462 158.541 149.739C158.216 148.246 158.118 146.699 158.118 145.256V130.376C158.118 128.932 158.216 127.386 158.541 125.893C158.842 124.509 159.495 122.408 161.158 120.579L161.286 120.438L161.421 120.304C163.196 118.529 165.292 117.763 166.786 117.397C168.344 117.017 169.939 116.904 171.398 116.904V124.904L170.999 124.908C169.045 124.949 167.738 125.3 167.078 125.96L166.962 126.102C166.4 126.852 166.118 128.276 166.118 130.376V145.256L166.122 145.667C166.16 147.677 166.478 149.012 167.078 149.672C167.782 150.376 169.222 150.729 171.398 150.729H183.398V124.904H171.398V116.904H191.398ZM198.854 168.488C196.678 168.488 195.238 168.84 194.534 169.544C193.894 170.248 193.574 171.72 193.574 173.96V188.937L193.578 189.348C193.616 191.357 193.934 192.693 194.534 193.353C195.238 194.056 196.678 194.408 198.854 194.408H210.854V168.488H198.854ZM164.582 190.856C164.582 192.136 164.87 193.065 165.446 193.641C166.006 194.088 166.958 194.34 168.302 194.396L168.902 194.408H181.862V167.048C181.862 166.152 181.984 165.501 182.229 165.095L182.342 164.937C182.622 164.544 183.221 164.323 184.138 164.274L184.55 164.265H188.006V155.145H171.11C168.678 155.145 166.981 155.72 166.021 156.872C165.062 157.96 164.582 159.689 164.582 162.057V190.856Z" fill="black"/>
<path d="M152.031 125H141.951V117H160.031V202.408H141.951C140.492 202.408 138.897 202.296 137.34 201.915C135.846 201.55 133.75 200.784 131.975 199.009L131.84 198.874L131.712 198.733C130.049 196.904 129.394 194.803 129.094 193.42C128.769 191.927 128.672 190.38 128.672 188.937V130.473C128.672 129.029 128.769 127.482 129.094 125.988C129.394 124.605 130.049 122.504 131.712 120.675L131.84 120.534L131.975 120.399C133.75 118.624 135.846 117.858 137.34 117.493C138.897 117.112 140.492 117 141.951 117V125C139.775 125 138.336 125.353 137.632 126.057L137.516 126.197C136.953 126.947 136.672 128.373 136.672 130.473V188.937L136.675 189.348C136.712 191.357 137.032 192.693 137.632 193.353C138.336 194.056 139.776 194.408 141.951 194.408H152.031V125Z" fill="black"/>
<path d="M103.808 125H83.2637V117H117.728V125H107.648V153.128H97.1836V162.248H107.648V194.408H117.728C119.707 194.408 121.069 194.099 121.812 193.48L121.952 193.353C122.656 192.585 123.008 191.08 123.008 188.84V130.473C123.008 128.233 122.656 126.761 121.952 126.057C121.312 125.353 119.904 125 117.728 125V117C119.179 117 120.787 117.111 122.356 117.503C123.771 117.857 125.853 118.614 127.607 120.399H127.608C129.414 122.205 130.17 124.346 130.524 125.827C130.898 127.388 131.008 128.995 131.008 130.473V188.84C131.008 190.325 130.896 191.921 130.533 193.472C130.184 194.962 129.471 196.989 127.85 198.758L127.731 198.886L127.608 199.009C125.866 200.752 123.815 201.529 122.309 201.905C120.754 202.294 119.17 202.408 117.728 202.408H83.2637C81.8042 202.408 80.2097 202.296 78.6523 201.915C77.1585 201.55 75.0621 200.784 73.2871 199.009L73.1523 198.874L73.0244 198.733C71.3615 196.904 70.707 194.803 70.4062 193.42C70.0817 191.927 69.9844 190.38 69.9844 188.937V130.473C69.9844 129.029 70.0816 127.482 70.4062 125.988C70.707 124.605 71.3615 122.504 73.0244 120.675L73.1523 120.534L73.2871 120.399C75.0621 118.624 77.1585 117.858 78.6523 117.493C80.2097 117.112 81.8042 117 83.2637 117V125C81.0878 125 79.6483 125.353 78.9443 126.057L78.8281 126.197C78.2655 126.947 77.9844 128.373 77.9844 130.473V188.937L77.9873 189.348C78.0248 191.357 78.3444 192.693 78.9443 193.353C79.6484 194.056 81.0882 194.408 83.2637 194.408H93.3438V134.889C93.3438 134.377 93.8559 134.12 94.8799 134.12H103.808V125Z" fill="black"/>
<path d="M64.8916 165V173H52.7959V165H64.8916ZM34.8438 125C32.2839 125 30.14 125.192 28.4121 125.576C26.7482 125.896 25.276 126.664 23.9961 127.88L23.5518 128.319C22.5437 129.362 21.7322 130.528 21.1162 131.816L20.9971 132.089C20.4121 133.499 19.9401 135.584 19.5801 138.344C19.1961 141.224 18.9395 144.2 18.8115 147.272L18.7695 149.99C18.7335 153.122 18.7158 157.496 18.7158 163.112L18.7295 165.826C18.7925 171.993 19.0761 177.008 19.5801 180.872C19.9641 183.816 20.4762 186.024 21.1162 187.496C21.8202 188.968 22.7801 190.312 23.9961 191.528C25.2761 192.68 26.7482 193.448 28.4121 193.832C30.14 194.216 32.2839 194.408 34.8438 194.408H35.9961V125H34.8438ZM39.8359 134.12H48.2842C49.4358 134.12 50.1394 134.344 50.3955 134.792C50.7155 135.176 50.876 135.88 50.876 136.904V144.393L50.8809 144.69C50.9018 145.356 50.996 145.8 51.1641 146.024C51.3562 146.28 51.9002 146.408 52.7959 146.408H64.8916C65.7315 146.408 66.1779 145.818 66.2305 144.637L66.2363 144.393V135.752C66.2363 131.784 65.0198 129 62.5879 127.4C60.3679 125.9 57.1355 125.104 52.8906 125.01L52.0283 125V117C57.3433 117 62.7088 117.864 66.9844 120.718L66.9854 120.717C67.0028 120.728 67.0197 120.74 67.0371 120.752C67.0468 120.759 67.0567 120.765 67.0664 120.771H67.0654C72.4547 124.363 74.2363 130.197 74.2363 135.752V144.393C74.2363 145.701 74.0639 148.081 72.5566 150.342C70.6675 153.175 67.6701 154.408 64.8916 154.408H52.7959C52.0532 154.408 51.0047 154.363 49.8838 154.1C49.0172 153.896 46.5626 153.223 44.7637 150.824C44.4556 150.413 44.2036 149.999 43.9961 149.599V169.809C44.2035 169.408 44.4558 168.994 44.7637 168.584C46.5626 166.185 49.0172 165.513 49.8838 165.309C51.0047 165.045 52.0532 165 52.7959 165V173C51.9003 173 51.3563 173.128 51.1641 173.384C50.9721 173.64 50.876 174.185 50.876 175.017V182.504L50.8682 182.875C50.8331 183.708 50.6755 184.32 50.3955 184.712C50.1715 185.048 49.6051 185.237 48.6953 185.279L48.2842 185.288H39.8359V194.408H52.0283L52.8906 194.398C57.1355 194.305 60.3679 193.508 62.5879 192.008C64.8677 190.508 66.0791 187.968 66.2217 184.387L66.2363 183.656V175.017C66.2363 173.673 65.7876 173 64.8916 173V165C67.67 165 70.6675 166.233 72.5566 169.066C74.0641 171.328 74.2363 173.708 74.2363 175.017V183.656C74.2363 189.211 72.4543 195.044 67.0654 198.636L67.0664 198.637C67.0568 198.643 67.0467 198.649 67.0371 198.655C67.0196 198.667 67.0029 198.68 66.9854 198.691L66.9844 198.689C62.7087 201.544 57.3435 202.408 52.0283 202.408H31.8359V202.321C30.0237 202.214 28.2909 202 26.6768 201.642L26.6445 201.635L26.6133 201.627C23.6159 200.935 20.924 199.526 18.6445 197.475L18.4883 197.334L18.3389 197.185C16.5166 195.362 15.0144 193.282 13.8984 190.948L13.8369 190.818L13.7793 190.686C12.6871 188.173 12.061 185.078 11.6475 181.907C11.0071 176.998 10.7158 170.687 10.7158 163.112C10.7158 155.625 10.7476 150.27 10.8135 147.105L10.8154 147.022L10.8193 146.939C10.9568 143.639 11.2326 140.421 11.6504 137.287C12.0611 134.147 12.6905 131.019 13.833 128.506L13.8652 128.435L13.8984 128.364C14.9653 126.134 16.3942 124.144 18.1406 122.415L18.4941 122.072C20.7783 119.905 23.5421 118.413 26.6768 117.767L27.1465 117.667C28.6255 117.367 30.1982 117.183 31.8359 117.086V117H52.0283V125H39.8359V134.12Z" fill="black"/>
<path d="M379.854 8H359.311V0H393.774V8H383.695V36.1279H373.23V45.248H383.695V77.4082H393.774C395.754 77.4082 397.116 77.099 397.858 76.4805L397.999 76.3525C398.703 75.5845 399.055 74.0798 399.055 71.8398V13.4727C399.055 11.233 398.703 9.76076 397.999 9.05664C397.399 8.39664 396.124 8.04515 394.174 8.00391L393.774 8V0C395.226 0 396.834 0.110601 398.403 0.50293C399.818 0.856647 401.9 1.61511 403.654 3.40039L403.655 3.39941C405.461 5.2054 406.217 7.34614 406.571 8.82715C406.945 10.3879 407.055 11.9948 407.055 13.4727V71.8398C407.055 73.3249 406.943 74.9207 406.58 76.4717C406.231 77.9618 405.518 79.989 403.896 81.7578L403.778 81.8857L403.655 82.0088C401.912 83.7516 399.861 84.5287 398.355 84.9053C396.801 85.2939 395.217 85.4082 393.774 85.4082H359.311C357.851 85.4082 356.257 85.2957 354.699 84.915C353.205 84.5499 351.109 83.7837 349.334 82.0088L349.199 81.874L349.071 81.7334C347.408 79.9042 346.754 77.8031 346.453 76.4199C346.129 74.9268 346.031 73.3801 346.031 71.9365V13.4727C346.031 12.029 346.129 10.4815 346.453 8.98828C346.754 7.60503 347.408 5.50398 349.071 3.6748L349.199 3.53418L349.334 3.39941C351.109 1.62443 353.205 0.858325 354.699 0.493164C356.257 0.112476 357.851 1.52099e-05 359.311 0V8L358.911 8.00391C356.958 8.04519 355.651 8.39668 354.991 9.05664L354.875 9.19727C354.312 9.94722 354.031 11.3725 354.031 13.4727V71.9365L354.034 72.3477C354.072 74.3574 354.391 75.6926 354.991 76.3525C355.695 77.0563 357.135 77.4082 359.311 77.4082H369.391V17.8887C369.391 17.3767 369.903 17.1201 370.927 17.1201H379.854V8Z" fill="black"/>
<path d="M334.996 0V8H324.916V73.5684L324.92 73.7812C324.957 74.8351 325.276 75.6925 325.876 76.3525C326.476 77.0123 327.244 77.363 328.182 77.4043L328.372 77.4082H340.275V13.4727C340.275 11.2328 339.924 9.7607 339.22 9.05664C338.62 8.3966 337.345 8.04512 335.395 8.00391L334.996 8V0C336.447 1.25392e-05 338.055 0.110651 339.624 0.50293C341.039 0.856655 343.122 1.61481 344.876 3.40039L344.877 3.39941C346.683 5.20534 347.438 7.34619 347.792 8.82715C348.165 10.3879 348.275 11.9948 348.275 13.4727V85.4082H328.372C325.287 85.4082 322.237 84.2429 319.956 81.7334C319.385 81.1056 318.91 80.4439 318.516 79.7627V85.4082H300.436C298.976 85.4082 297.382 85.2957 295.824 84.915C294.33 84.5499 292.234 83.7837 290.459 82.0088L290.324 81.874L290.196 81.7334C288.533 79.9042 287.879 77.8031 287.578 76.4199C287.254 74.9268 287.156 73.3801 287.156 71.9365V0H307.06V8H295.156V71.9365L295.159 72.3477C295.197 74.3574 295.516 75.6926 296.116 76.3525C296.82 77.0563 298.26 77.4082 300.436 77.4082H310.516V45.248H321.076V36.1279H310.516V11.8398C310.516 10.6881 310.196 9.76055 309.556 9.05664C308.956 8.39673 308.187 8.04524 307.25 8.00391L307.06 8V0C310.048 0 313.003 1.09376 315.259 3.44336L315.476 3.6748L315.682 3.9082C316.162 4.46576 316.571 5.04806 316.916 5.64551V0H334.996Z" fill="black"/>
<path d="M285.115 48.4805V56.4805H271.675V48.4805H285.115ZM270.811 67.1357C270.811 67.4557 270.779 67.744 270.715 68C270.715 68.192 270.203 68.2881 269.179 68.2881H260.251V77.4082H283.482C285.162 77.4082 286.055 76.6208 286.16 75.0459L286.171 74.7197V57.8242C286.171 56.9844 285.862 56.538 285.243 56.4854L285.115 56.4805V48.4805C287.283 48.4806 290.15 49.2679 292.197 51.874C293.956 54.113 294.171 56.5464 294.171 57.8242V74.7197C294.171 76.8489 293.633 79.9151 291.155 82.3926C288.678 84.87 285.612 85.4082 283.482 85.4082H246.811C245.351 85.4082 243.757 85.2957 242.199 84.915C240.705 84.5499 238.609 83.7837 236.834 82.0088L236.699 81.874L236.571 81.7334C234.908 79.9042 234.254 77.8031 233.953 76.4199C233.629 74.9268 233.531 73.3801 233.531 71.9365V13.4727C233.531 12.029 233.629 10.4815 233.953 8.98828C234.254 7.60503 234.908 5.50398 236.571 3.6748L236.699 3.53418L236.834 3.39941C238.609 1.62443 240.705 0.858325 242.199 0.493164C243.757 0.112476 245.351 1.52099e-05 246.811 0V8L246.411 8.00391C244.458 8.04519 243.151 8.39668 242.491 9.05664L242.375 9.19727C241.812 9.94722 241.531 11.3725 241.531 13.4727V71.9365L241.534 72.3477C241.572 74.3574 241.891 75.6926 242.491 76.3525C243.195 77.0563 244.635 77.4082 246.811 77.4082H256.891V8H246.811V0H264.891V51.4932C265.189 51.1465 265.545 50.7925 265.966 50.4541C268.258 48.5683 270.812 48.4805 271.675 48.4805V56.4805L271.453 56.4922C271.249 56.5161 271.099 56.576 271.003 56.6719C270.875 56.7359 270.811 57.0242 270.811 57.5361V67.1357Z" fill="black"/>
<path d="M227.828 8H217.748V0H235.828V85.4082H217.748C216.289 85.4082 214.694 85.2957 213.137 84.915C211.643 84.5499 209.546 83.7837 207.771 82.0088L207.637 81.874L207.509 81.7334C205.846 79.9042 205.191 77.8031 204.891 76.4199C204.566 74.9268 204.469 73.3801 204.469 71.9365V13.4727C204.469 12.029 204.566 10.4815 204.891 8.98828C205.191 7.60503 205.846 5.50398 207.509 3.6748L207.637 3.53418L207.771 3.39941C209.546 1.62443 211.643 0.858325 213.137 0.493164C214.694 0.112476 216.289 1.52099e-05 217.748 0V8L217.349 8.00391C215.395 8.04519 214.089 8.39668 213.429 9.05664L213.312 9.19727C212.75 9.94722 212.469 11.3725 212.469 13.4727V71.9365L212.472 72.3477C212.509 74.3574 212.829 75.6926 213.429 76.3525C214.133 77.0563 215.573 77.4082 217.748 77.4082H227.828V8Z" fill="black"/>
<path d="M186.165 39.1641C186.109 39.948 185.857 40.5357 185.409 40.9277L185.318 41.0098C184.893 41.3511 184.065 41.5443 182.837 41.5898L182.241 41.6006H175.137V50.7197H187.329L187.98 50.7139C190.98 50.6579 193.416 50.21 195.288 49.3701L195.681 49.1846C197.729 48.0966 199.361 45.952 200.577 42.752C201.857 39.552 202.497 35.1041 202.497 29.4082C202.497 20.8322 201.473 15.1363 199.425 12.3203C197.503 9.53043 193.659 8.09214 187.894 8.00488L187.329 8V0C194.124 7.15336e-07 201.705 1.52966 206.013 7.78223L206.011 7.7832C207.988 10.5796 209.013 14.0074 209.603 17.2891C210.228 20.7689 210.497 24.8491 210.497 29.4082C210.497 35.5446 209.83 41.16 208.005 45.7236L208.004 45.7227C206.414 49.8493 203.805 53.927 199.435 56.249L199.347 56.2959L199.259 56.3398C195.662 58.138 191.486 58.7197 187.329 58.7197H179.297V85.4082H161.217C159.757 85.4082 158.163 85.2957 156.605 84.915C155.112 84.5499 153.015 83.7837 151.24 82.0088L151.105 81.874L150.978 81.7334C149.315 79.9042 148.66 77.8031 148.359 76.4199C148.035 74.9268 147.938 73.3801 147.938 71.9365V11.8398C147.938 9.1392 148.729 6.14815 150.978 3.6748L151.193 3.44336C153.449 1.09348 156.405 0 159.394 0V8L159.203 8.00391C158.266 8.0452 157.497 8.39669 156.897 9.05664C156.258 9.76056 155.938 10.688 155.938 11.8398V71.9365L155.94 72.3477C155.978 74.3574 156.298 75.6926 156.897 76.3525C157.602 77.0563 159.041 77.4082 161.217 77.4082H171.297V8H159.394V0H187.329V8H175.137V17.1201H182.241C183.905 17.1201 184.961 17.344 185.409 17.792L185.502 17.8799C185.952 18.3336 186.177 19.0402 186.177 20V38.8164L186.165 39.1641Z" fill="black"/>
<path d="M142.409 71.9365V18.752C142.409 14.7843 141.193 12.0004 138.762 10.4004C136.542 8.90035 133.309 8.10348 129.063 8.00977L128.201 8V0C133.516 0 138.882 0.863904 143.157 3.71777L143.158 3.7168C143.169 3.72383 143.179 3.73221 143.189 3.73926C143.206 3.75042 143.224 3.76026 143.24 3.77148L143.239 3.77344C148.628 7.36533 150.409 13.1971 150.409 18.752V71.9365C150.409 73.4143 150.299 75.0204 149.926 76.5811C149.572 78.0621 148.816 80.2027 147.01 82.0088L147.009 82.0078C145.255 83.7931 143.173 84.5515 141.758 84.9053C140.188 85.2976 138.58 85.4082 137.129 85.4082H119.05V25.1201H118.921V78.4004H100.938C97.7431 78.4004 93.546 77.5341 90.6006 73.9092L90.5264 73.8174L90.4541 73.7236C88.0215 70.5423 87.5616 66.6557 87.5615 63.6807V25.1201H86.9531V85.4082H68.873C67.4136 85.4082 65.8191 85.2957 64.2617 84.915C62.7679 84.5499 60.6714 83.7837 58.8965 82.0088L58.7617 81.874L58.6338 81.7334C56.9709 79.9042 56.3163 77.8031 56.0156 76.4199C55.691 74.9268 55.5938 73.3801 55.5938 71.9365V11.8398C55.5938 9.1392 56.3853 6.14815 58.6338 3.6748L58.8496 3.44336C61.1055 1.09348 64.0612 0 67.0498 0V8L66.8594 8.00391C65.922 8.0452 65.1537 8.39669 64.5537 9.05664C63.9138 9.76056 63.5938 10.688 63.5938 11.8398V71.9365L63.5967 72.3477C63.6342 74.3574 63.9538 75.6926 64.5537 76.3525C65.2578 77.0563 66.6976 77.4082 68.873 77.4082H78.9531V8H67.0498V0H128.201V8H113.802V17.1201H124.457C125.609 17.1201 126.313 17.3441 126.569 17.792C126.889 18.176 127.05 18.8803 127.05 19.9043V77.4082H137.129C139.305 77.4082 140.713 77.0565 141.354 76.3525C142.013 75.6926 142.364 74.3574 142.405 72.3477L142.409 71.9365ZM82.8896 17.1201H92.9697C94.1213 17.1202 94.8249 17.3442 95.0811 17.792C95.4011 18.176 95.5615 18.8803 95.5615 19.9043V63.6807L95.5664 64.1172C95.6152 66.2619 96.0296 67.8443 96.8096 68.8643C97.5896 69.8242 98.8477 70.3346 100.584 70.3945L100.938 70.4004H110.921V11.8398C110.921 10.688 110.601 9.76056 109.961 9.05664C109.361 8.39668 108.593 8.04519 107.655 8.00391L107.466 8H82.8896V17.1201Z" fill="black"/>
<path d="M27.1992 63.9678V77.4082H47.5518L47.9629 77.4043C49.8385 77.3693 51.1261 77.0893 51.8262 76.5645L51.9678 76.4482C52.6717 75.7442 53.0234 74.3039 53.0234 72.1279V63.9678H27.1992ZM27.1992 35.6484V46.6885H42.752L43.5049 46.6748C45.0519 46.6163 46.0497 46.3675 46.498 45.9287L46.5918 45.8242C47.0398 45.1842 47.2637 43.7121 47.2637 41.4082V35.6484H27.1992ZM27.1992 8V21.4404H46.5918L47.0029 21.4365C48.8784 21.4015 50.1662 21.1215 50.8662 20.5967L51.0078 20.4805C51.7118 19.7765 52.0635 18.3362 52.0635 16.1602V8H27.1992ZM60.0635 16.1602C60.0635 17.6196 59.951 19.2141 59.5703 20.7715C59.2052 22.2653 58.4391 24.3617 56.6641 26.1367L56.5303 26.2715L56.3887 26.3994C55.8358 26.902 55.2579 27.312 54.6826 27.6484H55.2637V41.4082C55.2637 42.7704 55.2008 44.1557 55.0049 45.4434C54.8462 46.4861 54.4615 48.5321 53.1455 50.4121L53.0303 50.5771L52.9062 50.7354C50.937 53.2673 48.2164 54.0153 47.0518 54.2773C45.5955 54.605 44.0876 54.6885 42.752 54.6885H31.3594V55.9678H61.0234V72.1279C61.0234 73.5875 60.912 75.1828 60.5312 76.7402C60.1661 78.234 59.3989 80.3306 57.624 82.1055L57.4902 82.2393L57.3486 82.3682C55.5195 84.0309 53.4183 84.6847 52.0352 84.9854C50.542 85.31 48.9953 85.4082 47.5518 85.4082H13.2793C11.8198 85.4082 10.2253 85.2957 8.66797 84.915C7.17416 84.5499 5.07769 83.7837 3.30273 82.0088L3.16797 81.874L3.04004 81.7334C1.37716 79.9042 0.722594 77.8031 0.421875 76.4199C0.0972786 74.9268 1.45076e-05 73.3801 0 71.9365V13.4727C0 12.029 0.0972545 10.4815 0.421875 8.98828C0.722618 7.60503 1.37716 5.50398 3.04004 3.6748L3.16797 3.53418L3.30273 3.39941C5.07771 1.62443 7.17415 0.858325 8.66797 0.493164C10.2253 0.112476 11.8198 1.52099e-05 13.2793 0V8L12.8799 8.00391C10.9263 8.04519 9.61992 8.39668 8.95996 9.05664L8.84375 9.19727C8.28117 9.94722 8 11.3725 8 13.4727V71.9365L8.00293 72.3477C8.04047 74.3574 8.36001 75.6926 8.95996 76.3525C9.66406 77.0563 11.1038 77.4082 13.2793 77.4082H23.3594V8H13.2793V0H60.0635V16.1602Z" fill="black"/>
</svg>
